# xmcd
#
# Track frame offsets:
#	150
#	14280
#	25087
#	37392
#	47647
#	60090
#	72012
#	84420
#	95917
#	108170
#	118287
#	131265
#	141117
#	151587
#	165412
#	178520
#	190834
#	204660
#	218752
#	235475
#	250350
#	261942
#	274590
#	288582
#
# Disc length: 3977 seconds
# Revision: 0
# Processed by: cddbd v1.5.2PL0 Copyright (c) Steve Scherf et al.
# Submitted via: dBpowerAMP V12.0
#
DISCID=530f8718
DTITLE=Loretta Lynn - Honky Tonk Girl [The Loretta Lynn Collection]
DYEAR=1994
DGENRE=Country
TTITLE0=Back Street Affair (With Conway Twitty)
TTITLE1=Blueberry Hill
TTITLE2=The Morning After Baby Let Me Down
TTITLE3=It'll Feel Good After It Quits Hurtin'
TTITLE4=Here I Am Again
TTITLE5=The Pill
TTITLE6=Ain't It Funny
TTITLE7=Love Is The Foundation
TTITLE8=As Soon As I Hang Up The Phone (With Conway Twitty)
TTITLE9=What Sundown Does To You
TTITLE10=Hey Loretta
TTITLE11=Trouble In Paradise
TTITLE12=They Don't Make 'Em Like My Daddy Anymore
TTITLE13=When The Tingle Becomes A Chill
TTITLE14=The Letter (With Conway Twitty)
TTITLE15=Out Of My Head And Back In My Bed
TTITLE16=Somebody Somewhere (Don't Know What He's Missin' Tonight)
TTITLE17=She's Got You
TTITLE18=Why Can't He Be You
TTITLE19=I Can't Feel You Anymore
TTITLE20=You're The Reason Our Kid's Are Ugly (With Conway Twitty)
TTITLE21=I've Got A Picture Of Us On My Mind
TTITLE22=I Lie
TTITLE23=Who Was That Stranger
EXTD=
EXTT0=
EXTT1=
EXTT2=
EXTT3=
EXTT4=
EXTT5=
EXTT6=
EXTT7=
EXTT8=
EXTT9=
EXTT10=
EXTT11=
EXTT12=
EXTT13=
EXTT14=
EXTT15=
EXTT16=
EXTT17=
EXTT18=
EXTT19=
EXTT20=
EXTT21=
EXTT22=
EXTT23=
PLAYORDER=
